<svg width="16" height="16" viewBox="0 0 16 16" fill="none" xmlns="http://www.w3.org/2000/svg">
<g clip-path="url(#clip0_4_2147)">
<path d="M1.33333 6.00016C1.86376 6.00016 2.37247 6.21088 2.74754 6.58595C3.12261 6.96102 3.33333 7.46973 3.33333 8.00016C3.33333 8.5306 3.12261 9.0393 2.74754 9.41438C2.37247 9.78945 1.86376 10.0002 1.33333 10.0002V11.3335C1.33333 11.6871 1.4738 12.0263 1.72385 12.2763C1.9739 12.5264 2.31304 12.6668 2.66666 12.6668H13.3333C13.6869 12.6668 14.0261 12.5264 14.2761 12.2763C14.5262 12.0263 14.6667 11.6871 14.6667 11.3335V10.0002C14.1362 10.0002 13.6275 9.78945 13.2524 9.41438C12.8774 9.0393 12.6667 8.5306 12.6667 8.00016C12.6667 7.46973 12.8774 6.96102 13.2524 6.58595C13.6275 6.21088 14.1362 6.00016 14.6667 6.00016V4.66683C14.6667 4.31321 14.5262 3.97407 14.2761 3.72402C14.0261 3.47397 13.6869 3.3335 13.3333 3.3335H2.66666C2.31304 3.3335 1.9739 3.47397 1.72385 3.72402C1.4738 3.97407 1.33333 4.31321 1.33333 4.66683V6.00016Z" stroke="white" stroke-width="1.33333" stroke-linecap="round" stroke-linejoin="round"/>
<path d="M8.66667 3.3335V4.66683" stroke="white" stroke-width="1.33333" stroke-linecap="round" stroke-linejoin="round"/>
<path d="M8.66667 11.3335V12.6668" stroke="white" stroke-width="1.33333" stroke-linecap="round" stroke-linejoin="round"/>
<path d="M8.66667 7.3335V8.66683" stroke="white" stroke-width="1.33333" stroke-linecap="round" stroke-linejoin="round"/>
</g>
<defs>
<clipPath id="clip0_4_2147">
<rect width="16" height="16" fill="white"/>
</clipPath>
</defs>
</svg>
