<svg width="40" height="40" viewBox="0 0 40 40" fill="none" xmlns="http://www.w3.org/2000/svg">
<path d="M0 20C0 8.95431 8.95431 0 20 0C31.0457 0 40 8.95431 40 20C40 31.0457 31.0457 40 20 40C8.95431 40 0 31.0457 0 20Z" fill="#DCFCE7"/>
<path d="M16.6667 15V20" stroke="#00A63E" stroke-width="1.66667" stroke-linecap="round" stroke-linejoin="round"/>
<path d="M22.5 15V20" stroke="#00A63E" stroke-width="1.66667" stroke-linecap="round" stroke-linejoin="round"/>
<path d="M11.6667 20H28.0001" stroke="#00A63E" stroke-width="1.66667" stroke-linecap="round" stroke-linejoin="round"/>
<path d="M25.0001 25H27.5001C27.5001 25 27.9167 23.5833 28.1667 22.6667C28.2501 22.3333 28.3334 22 28.3334 21.6667C28.3334 21.3333 28.2501 21 28.1667 20.6667L27.0001 16.5C26.7501 15.6667 25.9167 15 25.0001 15H13.3334C12.8914 15 12.4675 15.1756 12.1549 15.4882C11.8423 15.8007 11.6667 16.2246 11.6667 16.6667V25H14.1667" stroke="#00A63E" stroke-width="1.66667" stroke-linecap="round" stroke-linejoin="round"/>
<path d="M15.8334 26.6663C16.7539 26.6663 17.5001 25.9201 17.5001 24.9997C17.5001 24.0792 16.7539 23.333 15.8334 23.333C14.9129 23.333 14.1667 24.0792 14.1667 24.9997C14.1667 25.9201 14.9129 26.6663 15.8334 26.6663Z" stroke="#00A63E" stroke-width="1.66667" stroke-linecap="round" stroke-linejoin="round"/>
<path d="M17.5 25H21.6667" stroke="#00A63E" stroke-width="1.66667" stroke-linecap="round" stroke-linejoin="round"/>
<path d="M23.3334 26.6663C24.2539 26.6663 25.0001 25.9201 25.0001 24.9997C25.0001 24.0792 24.2539 23.333 23.3334 23.333C22.4129 23.333 21.6667 24.0792 21.6667 24.9997C21.6667 25.9201 22.4129 26.6663 23.3334 26.6663Z" stroke="#00A63E" stroke-width="1.66667" stroke-linecap="round" stroke-linejoin="round"/>
</svg>
