<svg width="32" height="32" viewBox="0 0 32 32" fill="none" xmlns="http://www.w3.org/2000/svg">
<path d="M0 16C0 7.16344 7.16344 0 16 0C24.8366 0 32 7.16344 32 16C32 24.8366 24.8366 32 16 32C7.16344 32 0 24.8366 0 16Z" fill="#DCFCE7"/>
<g clip-path="url(#clip0_5_4454)">
<path d="M15.9999 22.6663C19.6818 22.6663 22.6666 19.6816 22.6666 15.9997C22.6666 12.3178 19.6818 9.33301 15.9999 9.33301C12.318 9.33301 9.33325 12.3178 9.33325 15.9997C9.33325 19.6816 12.318 22.6663 15.9999 22.6663Z" stroke="#00A63E" stroke-width="1.33333" stroke-linecap="round" stroke-linejoin="round"/>
<path d="M16 18.6667V16" stroke="#00A63E" stroke-width="1.33333" stroke-linecap="round" stroke-linejoin="round"/>
<path d="M16 13.333H16.0067" stroke="#00A63E" stroke-width="1.33333" stroke-linecap="round" stroke-linejoin="round"/>
</g>
<defs>
<clipPath id="clip0_5_4454">
<rect width="16" height="16" fill="white" transform="translate(8 8)"/>
</clipPath>
</defs>
</svg>
