<svg width="40" height="40" viewBox="0 0 40 40" fill="none" xmlns="http://www.w3.org/2000/svg">
<path d="M0 20C0 8.95431 8.95431 0 20 0C31.0457 0 40 8.95431 40 20C40 31.0457 31.0457 40 20 40C8.95431 40 0 31.0457 0 20Z" fill="#DCFCE7"/>
<g clip-path="url(#clip0_88_579)">
<path d="M21.5267 23.807C21.6989 23.886 21.8927 23.9041 22.0765 23.8582C22.2602 23.8123 22.4229 23.7052 22.5376 23.5545L22.8334 23.167C22.9887 22.96 23.19 22.792 23.4214 22.6763C23.6528 22.5606 23.908 22.5003 24.1667 22.5003H26.6667C27.1088 22.5003 27.5327 22.6759 27.8453 22.9885C28.1578 23.301 28.3334 23.725 28.3334 24.167V26.667C28.3334 27.109 28.1578 27.5329 27.8453 27.8455C27.5327 28.1581 27.1088 28.3337 26.6667 28.3337C22.6885 28.3337 18.8732 26.7533 16.0601 23.9403C13.2471 21.1272 11.6667 17.3119 11.6667 13.3337C11.6667 12.8916 11.8423 12.4677 12.1549 12.1551C12.4675 11.8426 12.8914 11.667 13.3334 11.667H15.8334C16.2754 11.667 16.6994 11.8426 17.0119 12.1551C17.3245 12.4677 17.5001 12.8916 17.5001 13.3337V15.8337C17.5001 16.0924 17.4398 16.3476 17.3241 16.579C17.2084 16.8104 17.0404 17.0117 16.8334 17.167L16.4434 17.4595C16.2904 17.5763 16.1826 17.7425 16.1382 17.9298C16.0939 18.1171 16.1157 18.314 16.2001 18.487C17.339 20.8002 19.2121 22.671 21.5267 23.807Z" stroke="#00A63E" stroke-width="1.66667" stroke-linecap="round" stroke-linejoin="round"/>
</g>
<defs>
<clipPath id="clip0_88_579">
<rect width="20" height="20" fill="white" transform="translate(10 10)"/>
</clipPath>
</defs>
</svg>
