<svg width="40" height="40" viewBox="0 0 40 40" fill="none" xmlns="http://www.w3.org/2000/svg">
<path d="M0 20C0 8.95431 8.95431 0 20 0C31.0457 0 40 8.95431 40 20C40 31.0457 31.0457 40 20 40C8.95431 40 0 31.0457 0 20Z" fill="#DCFCE7"/>
<path d="M26.6666 18.3337C26.6666 22.4945 22.0508 26.8278 20.5008 28.1662C20.3564 28.2747 20.1806 28.3335 19.9999 28.3335C19.8193 28.3335 19.6435 28.2747 19.4991 28.1662C17.9491 26.8278 13.3333 22.4945 13.3333 18.3337C13.3333 16.5655 14.0356 14.8699 15.2859 13.6196C16.5361 12.3694 18.2318 11.667 19.9999 11.667C21.768 11.667 23.4637 12.3694 24.714 13.6196C25.9642 14.8699 26.6666 16.5655 26.6666 18.3337Z" stroke="#00A63E" stroke-width="1.66667" stroke-linecap="round" stroke-linejoin="round"/>
<path d="M20 20.833C21.3807 20.833 22.5 19.7137 22.5 18.333C22.5 16.9523 21.3807 15.833 20 15.833C18.6193 15.833 17.5 16.9523 17.5 18.333C17.5 19.7137 18.6193 20.833 20 20.833Z" stroke="#00A63E" stroke-width="1.66667" stroke-linecap="round" stroke-linejoin="round"/>
</svg>
