<svg width="40" height="40" viewBox="0 0 40 40" fill="none" xmlns="http://www.w3.org/2000/svg">
<path d="M0 20C0 8.95431 8.95431 0 20 0C31.0457 0 40 8.95431 40 20C40 31.0457 31.0457 40 20 40C8.95431 40 0 31.0457 0 20Z" fill="#DCFCE7"/>
<path d="M23.3334 27.5V25.8333C23.3334 24.9493 22.9822 24.1014 22.3571 23.4763C21.732 22.8512 20.8841 22.5 20.0001 22.5H15.0001C14.116 22.5 13.2682 22.8512 12.6431 23.4763C12.0179 24.1014 11.6667 24.9493 11.6667 25.8333V27.5" stroke="#00A63E" stroke-width="1.66667" stroke-linecap="round" stroke-linejoin="round"/>
<path d="M23.3333 12.6064C24.048 12.7918 24.6811 13.2092 25.133 13.7932C25.5849 14.3772 25.8301 15.0947 25.8301 15.8331C25.8301 16.5715 25.5849 17.2891 25.133 17.8731C24.6811 18.4571 24.048 18.8745 23.3333 19.0598" stroke="#00A63E" stroke-width="1.66667" stroke-linecap="round" stroke-linejoin="round"/>
<path d="M28.3333 27.5001V25.8334C28.3327 25.0948 28.0869 24.3774 27.6344 23.7937C27.1819 23.2099 26.5484 22.793 25.8333 22.6084" stroke="#00A63E" stroke-width="1.66667" stroke-linecap="round" stroke-linejoin="round"/>
<path d="M17.5001 19.1667C19.341 19.1667 20.8334 17.6743 20.8334 15.8333C20.8334 13.9924 19.341 12.5 17.5001 12.5C15.6591 12.5 14.1667 13.9924 14.1667 15.8333C14.1667 17.6743 15.6591 19.1667 17.5001 19.1667Z" stroke="#00A63E" stroke-width="1.66667" stroke-linecap="round" stroke-linejoin="round"/>
</svg>
