<svg width="40" height="40" viewBox="0 0 40 40" fill="none" xmlns="http://www.w3.org/2000/svg">
<path d="M0 20C0 8.95431 8.95431 0 20 0C31.0457 0 40 8.95431 40 20C40 31.0457 31.0457 40 20 40C8.95431 40 0 31.0457 0 20Z" fill="#DCFCE7"/>
<path d="M17.4827 25.0347V14.1256L27.5526 12.4473V23.3564" stroke="#00A63E" stroke-width="1.67832" stroke-linecap="round" stroke-linejoin="round"/>
<path d="M14.9652 27.5525C16.3556 27.5525 17.4827 26.4254 17.4827 25.0351C17.4827 23.6447 16.3556 22.5176 14.9652 22.5176C13.5749 22.5176 12.4478 23.6447 12.4478 25.0351C12.4478 26.4254 13.5749 27.5525 14.9652 27.5525Z" stroke="#00A63E" stroke-width="1.67832" stroke-linecap="round" stroke-linejoin="round"/>
<path d="M25.0351 25.8738C26.4254 25.8738 27.5525 24.7467 27.5525 23.3563C27.5525 21.966 26.4254 20.8389 25.0351 20.8389C23.6447 20.8389 22.5176 21.966 22.5176 23.3563C22.5176 24.7467 23.6447 25.8738 25.0351 25.8738Z" stroke="#00A63E" stroke-width="1.67832" stroke-linecap="round" stroke-linejoin="round"/>
</svg>
