<svg width="40" height="40" viewBox="0 0 40 40" fill="none" xmlns="http://www.w3.org/2000/svg">
<path d="M0 20C0 8.95431 8.95431 0 20 0C31.0457 0 40 8.95431 40 20C40 31.0457 31.0457 40 20 40C8.95431 40 0 31.0457 0 20Z" fill="#DCFCE7"/>
<path d="M11.6667 17.9171C11.6668 16.9898 11.9481 16.0843 12.4735 15.3202C12.999 14.5561 13.7438 13.9693 14.6098 13.6374C15.4757 13.3056 16.4219 13.2441 17.3234 13.4613C18.225 13.6785 19.0394 14.164 19.6592 14.8538C19.7029 14.9005 19.7557 14.9377 19.8143 14.9631C19.8729 14.9885 19.9362 15.0017 20.0001 15.0017C20.064 15.0017 20.1272 14.9885 20.1859 14.9631C20.2445 14.9377 20.2973 14.9005 20.3409 14.8538C20.9588 14.1595 21.7734 13.6699 22.6764 13.4501C23.5795 13.2303 24.528 13.2907 25.3958 13.6233C26.2636 13.956 27.0096 14.545 27.5343 15.312C28.0591 16.0791 28.3378 16.9877 28.3334 17.9171C28.3334 19.8254 27.0834 21.2504 25.8334 22.5004L21.2567 26.9279C21.1015 27.1063 20.91 27.2495 20.6951 27.3482C20.4802 27.4468 20.2468 27.4986 20.0103 27.5001C19.7739 27.5016 19.5398 27.4528 19.3237 27.3569C19.1075 27.261 18.9143 27.1201 18.7567 26.9438L14.1667 22.5004C12.9167 21.2504 11.6667 19.8338 11.6667 17.9171Z" stroke="#00A63E" stroke-width="1.66667" stroke-linecap="round" stroke-linejoin="round"/>
</svg>
