<svg width="40" height="40" viewBox="0 0 40 40" fill="none" xmlns="http://www.w3.org/2000/svg">
<path d="M0 20C0 8.95431 8.95431 0 20 0C31.0457 0 40 8.95431 40 20C40 31.0457 31.0457 40 20 40C8.95431 40 0 31.0457 0 20Z" fill="#DCFCE7"/>
<path d="M25.8334 24.1663H27.5001C28.0001 24.1663 28.3334 23.833 28.3334 23.333V20.833C28.3334 20.083 27.7501 19.4163 27.0834 19.2497C25.5834 18.833 23.3334 18.333 23.3334 18.333C23.3334 18.333 22.2501 17.1663 21.5001 16.4163C21.0834 16.083 20.5834 15.833 20.0001 15.833H14.1667C13.6667 15.833 13.2501 16.1663 13.0001 16.583L11.8334 18.9997C11.7231 19.3215 11.6667 19.6594 11.6667 19.9997V23.333C11.6667 23.833 12.0001 24.1663 12.5001 24.1663H14.1667" stroke="#00A63E" stroke-width="1.66667" stroke-linecap="round" stroke-linejoin="round"/>
<path d="M15.8334 25.8333C16.7539 25.8333 17.5001 25.0871 17.5001 24.1667C17.5001 23.2462 16.7539 22.5 15.8334 22.5C14.9129 22.5 14.1667 23.2462 14.1667 24.1667C14.1667 25.0871 14.9129 25.8333 15.8334 25.8333Z" stroke="#00A63E" stroke-width="1.66667" stroke-linecap="round" stroke-linejoin="round"/>
<path d="M17.5 24.167H22.5" stroke="#00A63E" stroke-width="1.66667" stroke-linecap="round" stroke-linejoin="round"/>
<path d="M24.1667 25.8333C25.0871 25.8333 25.8333 25.0871 25.8333 24.1667C25.8333 23.2462 25.0871 22.5 24.1667 22.5C23.2462 22.5 22.5 23.2462 22.5 24.1667C22.5 25.0871 23.2462 25.8333 24.1667 25.8333Z" stroke="#00A63E" stroke-width="1.66667" stroke-linecap="round" stroke-linejoin="round"/>
</svg>
