<svg width="40" height="40" viewBox="0 0 40 40" fill="none" xmlns="http://www.w3.org/2000/svg">
<path d="M0 20C0 8.95431 8.95431 0 20 0C31.0457 0 40 8.95431 40 20C40 31.0457 31.0457 40 20 40C8.95431 40 0 31.0457 0 20Z" fill="#DCFCE7"/>
<path d="M25.4167 27.5003C27.0275 27.5003 28.3333 26.1945 28.3333 24.5837C28.3333 22.9728 27.0275 21.667 25.4167 21.667C23.8058 21.667 22.5 22.9728 22.5 24.5837C22.5 26.1945 23.8058 27.5003 25.4167 27.5003Z" stroke="#00A63E" stroke-width="1.66667" stroke-linecap="round" stroke-linejoin="round"/>
<path d="M14.5834 27.5003C16.1942 27.5003 17.5001 26.1945 17.5001 24.5837C17.5001 22.9728 16.1942 21.667 14.5834 21.667C12.9726 21.667 11.6667 22.9728 11.6667 24.5837C11.6667 26.1945 12.9726 27.5003 14.5834 27.5003Z" stroke="#00A63E" stroke-width="1.66667" stroke-linecap="round" stroke-linejoin="round"/>
<path d="M22.5001 14.9997C22.9603 14.9997 23.3334 14.6266 23.3334 14.1663C23.3334 13.7061 22.9603 13.333 22.5001 13.333C22.0398 13.333 21.6667 13.7061 21.6667 14.1663C21.6667 14.6266 22.0398 14.9997 22.5001 14.9997Z" stroke="#00A63E" stroke-width="1.66667" stroke-linecap="round" stroke-linejoin="round"/>
<path d="M20 24.5837V21.667L17.5 19.167L20.8333 16.667L22.5 19.167H24.1667" stroke="#00A63E" stroke-width="1.66667" stroke-linecap="round" stroke-linejoin="round"/>
</svg>
