<svg width="40" height="40" viewBox="0 0 40 40" fill="none" xmlns="http://www.w3.org/2000/svg">
<path d="M0 20C0 8.95431 8.95431 0 20 0C31.0457 0 40 8.95431 40 20C40 31.0457 31.0457 40 20 40C8.95431 40 0 31.0457 0 20Z" fill="#DCFCE7"/>
<path d="M19.1667 26.667C17.7034 26.6714 16.2919 26.1257 15.2121 25.1382C14.1323 24.1506 13.4632 22.7933 13.3373 21.3354C13.2114 19.8775 13.6381 18.4256 14.5326 17.2676C15.4272 16.1096 16.7243 15.3301 18.1667 15.0837C22.9167 14.167 24.1667 13.7337 25.8334 11.667C26.6667 13.3337 27.5 15.1503 27.5 18.3337C27.5 22.917 23.5167 26.667 19.1667 26.667Z" stroke="#00A63E" stroke-width="1.66667" stroke-linecap="round" stroke-linejoin="round"/>
<path d="M11.6665 27.5C11.6665 25 13.2082 23.0333 15.8998 22.5C17.9165 22.1 19.9998 20.8333 20.8332 20" stroke="#00A63E" stroke-width="1.66667" stroke-linecap="round" stroke-linejoin="round"/>
</svg>
