<svg width="16" height="16" viewBox="0 0 16 16" fill="none" xmlns="http://www.w3.org/2000/svg">
<path d="M7.3334 13.333C6.16277 13.3366 5.03357 12.9 4.16975 12.11C3.30592 11.3199 2.77058 10.234 2.66989 9.06775C2.5692 7.90145 2.91053 6.73991 3.62617 5.8135C4.34181 4.88709 5.37949 4.26347 6.5334 4.06634C10.3334 3.33301 11.3334 2.98634 12.6667 1.33301C13.3334 2.66634 14.0001 4.11967 14.0001 6.66634C14.0001 10.333 10.8134 13.333 7.3334 13.333Z" stroke="white" stroke-width="1.33333" stroke-linecap="round" stroke-linejoin="round"/>
<path d="M1.33325 14C1.33325 12 2.56659 10.4267 4.71992 10C6.33325 9.68 7.99992 8.66667 8.66659 8" stroke="white" stroke-width="1.33333" stroke-linecap="round" stroke-linejoin="round"/>
</svg>
