<svg width="36" height="36" viewBox="0 0 36 36" fill="none" xmlns="http://www.w3.org/2000/svg">
<path d="M0 18C0 8.05888 8.05888 0 18 0C27.9411 0 36 8.05888 36 18C36 27.9411 27.9411 36 18 36C8.05888 36 0 27.9411 0 18Z" fill="#008236"/>
<g clip-path="url(#clip0_88_666)">
<path d="M21.3333 11.333H14.6666C12.8256 11.333 11.3333 12.8254 11.3333 14.6663V21.333C11.3333 23.174 12.8256 24.6663 14.6666 24.6663H21.3333C23.1742 24.6663 24.6666 23.174 24.6666 21.333V14.6663C24.6666 12.8254 23.1742 11.333 21.3333 11.333Z" stroke="white" stroke-width="1.33333" stroke-linecap="round" stroke-linejoin="round"/>
<path d="M20.6668 17.5802C20.7491 18.135 20.6543 18.7017 20.396 19.1995C20.1376 19.6974 19.7289 20.1011 19.2279 20.3533C18.7269 20.6055 18.1591 20.6933 17.6053 20.6042C17.0515 20.515 16.54 20.2536 16.1434 19.857C15.7467 19.4604 15.4853 18.9488 15.3962 18.395C15.3071 17.8412 15.3948 17.2735 15.647 16.7725C15.8992 16.2714 16.3029 15.8627 16.8008 15.6044C17.2987 15.346 17.8653 15.2513 18.4201 15.3335C18.9861 15.4175 19.51 15.6812 19.9146 16.0857C20.3192 16.4903 20.5829 17.0143 20.6668 17.5802Z" stroke="white" stroke-width="1.33333" stroke-linecap="round" stroke-linejoin="round"/>
<path d="M21.6667 14.333H21.6734" stroke="white" stroke-width="1.33333" stroke-linecap="round" stroke-linejoin="round"/>
</g>
<defs>
<clipPath id="clip0_88_666">
<rect width="16" height="16" fill="white" transform="translate(10 10)"/>
</clipPath>
</defs>
</svg>
