<svg width="36" height="36" viewBox="0 0 36 36" fill="none" xmlns="http://www.w3.org/2000/svg">
<path d="M0 18C0 8.05888 8.05888 0 18 0C27.9411 0 36 8.05888 36 18C36 27.9411 27.9411 36 18 36C8.05888 36 0 27.9411 0 18Z" fill="#008236"/>
<path d="M22.0001 11.333H20.0001C19.116 11.333 18.2682 11.6842 17.6431 12.3093C17.0179 12.9344 16.6667 13.7823 16.6667 14.6663V16.6663H14.6667V19.333H16.6667V24.6663H19.3334V19.333H21.3334L22.0001 16.6663H19.3334V14.6663C19.3334 14.4895 19.4037 14.32 19.5287 14.1949C19.6537 14.0699 19.8233 13.9997 20.0001 13.9997H22.0001V11.333Z" stroke="white" stroke-width="1.33333" stroke-linecap="round" stroke-linejoin="round"/>
</svg>
