<svg width="36" height="36" viewBox="0 0 36 36" fill="none" xmlns="http://www.w3.org/2000/svg">
<path d="M0 18C0 8.05888 8.05888 0 18 0C27.9411 0 36 8.05888 36 18C36 27.9411 27.9411 36 18 36C8.05888 36 0 27.9411 0 18Z" fill="#008236"/>
<path d="M24.6666 12.6664C24.6666 12.6664 24.1999 14.0664 23.3333 14.933C24.3999 21.5997 17.0666 26.4664 11.3333 22.6664C12.7999 22.733 14.2666 22.2664 15.3333 21.333C11.9999 20.333 10.3333 16.3997 11.9999 13.333C13.4666 15.0664 15.7333 16.0664 17.9999 15.9997C17.3999 13.1997 20.6666 11.5997 22.6666 13.4664C23.3999 13.4664 24.6666 12.6664 24.6666 12.6664Z" stroke="white" stroke-width="1.33333" stroke-linecap="round" stroke-linejoin="round"/>
</svg>
